<svg xmlns="http://www.w3.org/2000/svg" width="100" height="88" viewBox="0 0 100 88">
  <g id="checking" transform="translate(0 -30.122)">
    <g id="그룹_24015" data-name="그룹 24015" transform="translate(0 30.122)">
      <path id="패스_441" data-name="패스 441" d="M97.07,94.65H2.93A2.926,2.926,0,0,1,0,91.728V37.711a7.608,7.608,0,0,1,7.609-7.589H92.391A7.608,7.608,0,0,1,100,37.711V91.728a2.926,2.926,0,0,1-2.93,2.922Z" transform="translate(0 -30.122)" fill="#cff9ff"/>
    </g>
    <path id="패스_442" data-name="패스 442" d="M298.391,30.123H256V94.651h47.07A2.926,2.926,0,0,0,306,91.729V37.712a7.608,7.608,0,0,0-7.609-7.589Z" transform="translate(-206.001 -0.001)" fill="#96e8ff"/>
    <g id="그룹_24016" data-name="그룹 24016" transform="translate(35.303 98.593)">
      <path id="패스_443" data-name="패스 443" d="M207.215,399.2H183.68a2.926,2.926,0,0,1-2.93-2.922V384.544a2.926,2.926,0,0,1,2.93-2.922h23.535a2.926,2.926,0,0,1,2.93,2.922v11.738A2.926,2.926,0,0,1,207.215,399.2Z" transform="translate(-180.75 -381.622)" fill="#27488f"/>
    </g>
    <path id="패스_444" data-name="패스 444" d="M267.768,381.623H256v17.582h11.767a2.926,2.926,0,0,0,2.93-2.922V384.545A2.926,2.926,0,0,0,267.768,381.623Z" transform="translate(-206.001 -283.03)" fill="#1b3b6b"/>
    <g id="그룹_24017" data-name="그룹 24017" transform="translate(32.349 44.781)">
      <path id="패스_445" data-name="패스 445" d="M183.276,140.586a17.6,17.6,0,1,1,17.651-17.6A17.648,17.648,0,0,1,183.276,140.586Z" transform="translate(-165.625 -105.377)" fill="#90ed77"/>
    </g>
    <path id="패스_446" data-name="패스 446" d="M256,105.377v35.209a17.6,17.6,0,1,0,0-35.209Z" transform="translate(-206.001 -60.596)" fill="#63e340"/>
    <g id="그룹_24018" data-name="그룹 24018" transform="translate(28.442 112.278)">
      <path id="패스_447" data-name="패스 447" d="M185.811,457.721H148.555a2.922,2.922,0,1,1,0-5.844h37.256a2.922,2.922,0,1,1,0,5.844Z" transform="translate(-145.625 -451.877)" fill="#1b3b6b"/>
    </g>
    <g id="그룹_24019" data-name="그룹 24019" transform="translate(41.187 56.711)">
      <path id="패스_448" data-name="패스 448" d="M217.292,177.968a2.93,2.93,0,0,1-2.072-.856l-3.486-3.477a2.926,2.926,0,0,1,4.143-4.132l1.788,1.783,6.283-4.178a2.924,2.924,0,1,1,3.25,4.862l-8.282,5.506a2.929,2.929,0,0,1-1.624.491Z" transform="translate(-210.876 -166.617)" fill="#63e340"/>
    </g>
    <g id="그룹_24020" data-name="그룹 24020" transform="translate(29.419 41.859)">
      <path id="패스_449" data-name="패스 449" d="M171.206,131.43A20.527,20.527,0,1,1,191.787,110.9,20.577,20.577,0,0,1,171.206,131.43Zm0-35.209A14.683,14.683,0,1,0,185.928,110.9,14.719,14.719,0,0,0,171.206,96.221Z" transform="translate(-150.625 -90.377)" fill="#63e340"/>
    </g>
    <path id="패스_450" data-name="패스 450" d="M0,353.451a7.607,7.607,0,0,0,7.609,7.587H92.391A7.607,7.607,0,0,0,100,353.451v-7.069H0Z" transform="translate(0 -254.654)" fill="#1b3b6b"/>
    <path id="패스_451" data-name="패스 451" d="M274.629,451.877H256v5.844h18.628a2.922,2.922,0,1,0,0-5.844Z" transform="translate(-206.001 -339.599)" fill="#12254c"/>
    <path id="패스_452" data-name="패스 452" d="M256,361.039h42.39A7.607,7.607,0,0,0,306,353.452v-7.069H256Z" transform="translate(-206.001 -254.655)" fill="#12254c"/>
    <g id="그룹_24021" data-name="그룹 24021" transform="translate(50 41.859)">
      <path id="패스_453" data-name="패스 453" d="M256,90.377v5.844a14.683,14.683,0,1,1,0,29.365v5.844a20.527,20.527,0,1,0,0-41.053Z" transform="translate(-256.001 -90.377)" fill="#1ac776"/>
      <path id="패스_454" data-name="패스 454" d="M260.26,167.108,256,169.94v7.023l7.509-4.992a2.924,2.924,0,1,0-3.25-4.863Z" transform="translate(-256.001 -151.766)" fill="#1ac776"/>
    </g>
  </g>
</svg>
