<svg xmlns="http://www.w3.org/2000/svg" xmlns:xlink="http://www.w3.org/1999/xlink" width="144.136" height="52.999" viewBox="0 0 144.136 52.999"><defs><filter id="a" x="0" y="0" width="144.136" height="52.999" filterUnits="userSpaceOnUse"><feOffset dy="3" input="SourceAlpha"/><feGaussianBlur stdDeviation="3" result="b"/><feFlood flood-opacity="0.161"/><feComposite operator="in" in2="b"/><feComposite in="SourceGraphic"/></filter></defs><g transform="matrix(1, 0, 0, 1, 0, 0)" filter="url(#a)"><path d="M-7886.864-1494v-18.108h1.986v2.182h.048a4.7,4.7,0,0,1,4.288-2.472,4.546,4.546,0,0,1,3.742,1.666,6.9,6.9,0,0,1,1.345,4.464,7.675,7.675,0,0,1-1.516,4.983,5.038,5.038,0,0,1-4.14,1.872,4.15,4.15,0,0,1-3.719-2.082h-.048v7.5Zm3.834-15.521a4.83,4.83,0,0,0-.921,3.023v1.732a4,4,0,0,0,.873,2.611,2.739,2.739,0,0,0,2.22,1.071,2.8,2.8,0,0,0,2.475-1.381,7.023,7.023,0,0,0,.893-3.838,5.509,5.509,0,0,0-.837-3.247,2.637,2.637,0,0,0-2.266-1.175A2.921,2.921,0,0,0-7883.03-1509.522Zm-16.3,9.127a3.4,3.4,0,0,1-1.047-2.6q0-3.474,4.092-4.046l3.72-.521q0-3.162-2.555-3.161a6.111,6.111,0,0,0-4.048,1.527v-2.036a7.7,7.7,0,0,1,4.216-1.163q4.372,0,4.372,4.627v8.068h-1.986v-1.938h-.05a4.154,4.154,0,0,1-3.813,2.228A4.075,4.075,0,0,1-7899.334-1500.4Zm3.511-5.123a5.474,5.474,0,0,0-2.182.649,1.784,1.784,0,0,0-.736,1.642,1.714,1.714,0,0,0,.678,1.4,2.815,2.815,0,0,0,1.81.545,3.532,3.532,0,0,0,2.557-.979,3.3,3.3,0,0,0,1.007-2.478v-1.167Zm-58.473,5.123a3.4,3.4,0,0,1-1.047-2.6q0-3.474,4.092-4.046l3.72-.521q0-3.162-2.555-3.161a6.1,6.1,0,0,0-4.048,1.527v-2.036a7.7,7.7,0,0,1,4.216-1.163q4.372,0,4.372,4.627v8.068h-1.986v-1.938h-.05a4.154,4.154,0,0,1-3.813,2.228A4.075,4.075,0,0,1-7954.3-1500.4Zm3.511-5.123a5.474,5.474,0,0,0-2.182.649,1.784,1.784,0,0,0-.736,1.642,1.714,1.714,0,0,0,.678,1.4,2.815,2.815,0,0,0,1.81.545,3.532,3.532,0,0,0,2.557-.979,3.311,3.311,0,0,0,1.007-2.478v-1.167Zm-12.264,5.816v-12.4h1.986v1.65a3.128,3.128,0,0,1,1.337-1.481,3.744,3.744,0,0,1,1.958-.386,3.262,3.262,0,0,1,1.187.17v2.06a2.412,2.412,0,0,0-1.5-.4,2.534,2.534,0,0,0-2.126,1.2,5.545,5.545,0,0,0-.855,3.269v6.324Zm57.242,0v-11.651q0-1.381.168-3.377h-.048a11,11,0,0,1-.521,1.682l-5.936,13.347h-.991l-5.923-13.251a10.085,10.085,0,0,1-.521-1.778h-.05q.1,1.039.1,3.4v11.627h-1.962v-17.367h2.688l5.329,12.112a15.145,15.145,0,0,1,.8,2.082h.074q.519-1.43.835-2.132l5.437-12.062h2.545v17.367Zm-21.68,0v-7.073q0-3.949-2.883-3.95a3.13,3.13,0,0,0-2.466,1.121,4.161,4.161,0,0,0-.975,2.829v7.073h-1.986v-12.4h1.986v1.411c1.151-1.516,2.343-1.7,4.118-1.7a3.8,3.8,0,0,1,3.113,1.315,5.85,5.85,0,0,1,1.077,3.8v7.583Zm-14.32,0v-12.4h1.988v12.4Zm-35.194,0v-17.367h4.94a5.4,5.4,0,0,1,3.574,1.1,3.561,3.561,0,0,1,1.321,2.871,4.223,4.223,0,0,1-.8,2.567,4.318,4.318,0,0,1-2.2,1.552v.048a4.406,4.406,0,0,1,2.811,1.327,4.081,4.081,0,0,1,1.053,2.911,4.54,4.54,0,0,1-1.6,3.609,5.946,5.946,0,0,1-4.032,1.381Zm2.034-1.842h2.761a4.145,4.145,0,0,0,2.781-.847,2.906,2.906,0,0,0,.987-2.326q0-3.075-4.19-3.075h-2.338Zm0-8.078h2.084a3.963,3.963,0,0,0,2.629-.8,2.81,2.81,0,0,0,.955-2.27q0-2.535-3.329-2.532h-2.338Zm107.045,6.044a5.43,5.43,0,0,1-.094-5.085c.836-1.5.4-4.3-1.007-4.426-.008,0-.012-.006-.02-.006a2.956,2.956,0,0,1-2.486-1.523,2.958,2.958,0,0,1-.172-2.49.086.086,0,0,0,0-.012c.01-.022.02-.044.03-.068a4.567,4.567,0,0,0,.232-1.822,7.509,7.509,0,0,0-1.1-3.143,1.268,1.268,0,0,0-.955-.539c-.068-.006-.134-.022-.2-.032a1.745,1.745,0,0,1-.176-.034l-.036-.008s-.006,0-.008,0a1.985,1.985,0,0,1-1.171-.943,1.987,1.987,0,0,1,.777-2.7,1.975,1.975,0,0,1,1.717-.088.071.071,0,0,1,0-.01c.57.178,2.072-.526,3.924-1.231,2.969-1.129,6.842-2.258,9.253.25,2.086,2.392.18,5.2-2.132,7.281.084-.012.162-.026.25-.036,3.563-.444,8.827.264,10.22,4.194,1.516,5.305-5.937,6.937-6.672,10.164a5.427,5.427,0,0,1-2.792,4.434,5.423,5.423,0,0,1-2.627.681A5.438,5.438,0,0,1-7867.921-1503.58Zm5.037-8.058a5.411,5.411,0,0,1,.787.1.481.481,0,0,1,.054.006,6.215,6.215,0,0,0,5.84-1.67,2.543,2.543,0,0,0,.506-3.565c-.544-.819-2.016-1.586-4.3-1.67-2.482-.092-5.651.561-6.02,1.922a2.961,2.961,0,0,1-.454,2.1c-.01.028-.014.054-.026.082-.4.955.311,2.743,3.035,2.7.11-.006.22-.012.333-.012.02,0,.04,0,.062,0a.562.562,0,0,1,.058,0A.589.589,0,0,1-7862.884-1511.638Zm-8.468-13.383a.637.637,0,0,1-.012.182,1.978,1.978,0,0,1-.262,1.157c0,.006,0,.012,0,.018a1.6,1.6,0,0,0-.014,1.319,12.244,12.244,0,0,0,1.253,2.186,3.311,3.311,0,0,0,1.731,1.145l.06.024a1.235,1.235,0,0,1,.316.054.013.013,0,0,0,.008,0h.066c1.269.182,3.54-.973,5.2-2.364,2.16-1.808,3.121-3.978,2.024-5.363a3.925,3.925,0,0,0-3.142-1.085C-7867.3-1527.746-7871.412-1526.059-7871.353-1525.021Zm-70.341,9.4a1.219,1.219,0,0,1-.376-.921,1.242,1.242,0,0,1,.376-.927,1.241,1.241,0,0,1,.909-.37,1.284,1.284,0,0,1,.925.37,1.238,1.238,0,0,1,.38.927,1.229,1.229,0,0,1-.38.909,1.271,1.271,0,0,1-.925.374A1.25,1.25,0,0,1-7941.693-1515.618Zm64.337-3.654a2.028,2.028,0,0,1,2.03-2.028,2.03,2.03,0,0,1,2.03,2.028,2.031,2.031,0,0,1-2.03,2.03A2.03,2.03,0,0,1-7877.356-1519.272Zm20.29-4.058a2.721,2.721,0,0,1,2.721-2.721,2.72,2.72,0,0,1,2.721,2.721,2.72,2.72,0,0,1-2.721,2.721A2.721,2.721,0,0,1-7857.066-1523.33Z" transform="translate(7986 1535)" fill="#fff"/></g></svg>